<svg width="186" height="186" xmlns="http://www.w3.org/2000/svg">

 <g>
  <title>background</title>
  <rect fill="none" id="canvas_background" height="188" width="188" y="-1" x="-1"/>
 </g>
 <g>
  <title>Layer 1</title>
  <g id="svg_10">
   <g id="svg_11">
    <g id="svg_12">
     <path id="svg_13" d="m55.599,101.544" fill="#56AEDF"/>
    </g>
   </g>
   <g id="svg_14">
    <g id="svg_15">
     <path id="svg_16" d="m174.169,84.288c0.015,-0.65 0.049,-1.296 0.049,-1.95c0,-45.072 -36.538,-81.609 -81.609,-81.609s-81.609,36.538 -81.609,81.609c0,0.654 0.034,1.3 0.049,1.95l163.12,0z" fill="#83B84B"/>
     <path id="svg_17" d="m174.169,83.22c0.015,0.65 0.049,1.296 0.049,1.95c0,45.072 -36.538,81.609 -81.609,81.609s-81.609,-36.538 -81.609,-81.609c0,-0.654 0.034,-1.3 0.049,-1.95l163.12,0z" fill="#8FC54F"/>
    </g>
    <polygon id="svg_18" points="148.47900390625,83.22000122070312 100.39700317382812,39.66400146484375 96.7340087890625,53.05999755859375 108.54499816894531,65.99699401855469 111.16999816894531,78.7449951171875 112.01400756835938,83.22000122070312 " fill="#77A749"/>
    <g id="svg_19">
     <path id="svg_20" d="m107.887,51.661l-7.49,0l0,-11.996l-16.106,0l0,11.996l-7.49,0c-4.706,0 -8.521,3.815 -8.521,8.521l0,26.637c0,1.078 0.208,2.105 0.573,3.054l23.49,12.999l23.648,-12.999c0,0 0.416,-1.976 0.416,-3.054l0,-26.637c0,-4.707 -3.814,-8.521 -8.52,-8.521zm-14.863,33.656c-7.173,0 -12.987,-5.814 -12.987,-12.987c0,-7.173 5.814,-12.987 12.987,-12.987c7.173,0 12.987,5.814 12.987,12.987c0,7.173 -5.814,12.987 -12.987,12.987z" fill="#707071"/>
     <polygon id="svg_21" points="44.47199630737305,172.60299682617188 86.36399841308594,99.82400512695312 74.23100280761719,92.81900024414062 32.210994720458984,165.74899291992188 29.230998992919922,184.88101196289062 " fill="#F2F2F2"/>
     <polygon id="svg_22" points="152.97499084472656,165.51600646972656 110.89300537109375,92.84599304199219 98.760009765625,99.85099792480469 140.90899658203125,172.70599365234375 155.9879913330078,184.85400390625 " fill="#F2F2F2"/>
    </g>
    <path id="svg_23" d="m89.121,135.361c-8.303,0 -16.153,-1.941 -23.12,-5.393c-8.138,15.271 0.111,-4.102 -6.976,10.307c8.985,4.749 19.227,7.439 30.097,7.439c35.619,0 64.493,-28.875 64.493,-64.493l-12.352,0c-0.001,28.795 -23.346,52.14 -52.142,52.14z" fill="#F2F2F2"/>
   </g>
  </g>
 </g>
</svg>