<svg width="256" height="256" xmlns="http://www.w3.org/2000/svg" preserveAspectRatio="xMinYMin meet">
 <defs>
  <linearGradient id="a" y2="-159.5%" x2="50%" y1="1089.396%" x1="50%">
   <stop offset="30.33%" stop-color="#473788"/>
   <stop offset="87.2%" stop-color="#2C2255"/>
  </linearGradient>
  <linearGradient id="b" y2="-352.359%" x2="49.999%" y1="896.537%" x1="49.999%">
   <stop offset="30.33%" stop-color="#473788"/>
   <stop offset="87.2%" stop-color="#2C2255"/>
  </linearGradient>
  <linearGradient id="c" y2="-166.715%" x2="49.999%" y1="215.17%" x1="49.999%">
   <stop offset="30.33%" stop-color="#473788"/>
   <stop offset="86.31%" stop-color="#2C2255"/>
  </linearGradient>
 </defs>
 <g>
  <title>background</title>
  <rect fill="none" id="canvas_background" height="258" width="258" y="-1" x="-1"/>
 </g>
 <g>
  <title>Layer 1</title>
  <path id="svg_1" fill="#2C2255" d="m70.382,161.049l-39.122,0c5.18,17.768 14.792,33.693 28.864,47.768c22.434,22.436 49.41,33.64 80.956,33.64c6.306,0 12.416,-0.47 18.35,-1.365c23.761,-3.587 44.565,-14.33 62.39,-32.275c14.162,-14.07 23.842,-30 29.062,-47.768l-180.5,0zm-21.572,-53.134l-20.437,0a119.493,119.493 0 0 0 -1.488,13.775l228.399,0c-0.233,-4.7 -0.743,-9.285 -1.497,-13.775m-226.902,26.567c0.231,4.703 0.738,9.287 1.488,13.775l225.418,0a118.86,118.86 0 0 0 1.5,-13.775m-4.404,-39.362c-5.215,-17.817 -14.897,-33.817 -29.067,-47.99c-17.778,-17.777 -38.522,-28.443 -62.207,-32.031a123.318,123.318 0 0 0 -18.532,-1.386c-31.546,0 -58.524,11.143 -80.956,33.418c-14.077,14.172 -23.695,30.172 -28.871,47.989"/>
  <path id="svg_2" fill="#F7941E" d="m20.093,128.09c0,-60.337 45.314,-110.469 104.264,-119.287c-1.462,-0.053 -2.932,-0.112 -4.409,-0.112c-66.152,0.001 -119.784,53.459 -119.784,119.399c0,65.943 53.63,119.397 119.784,119.397c1.482,0 2.951,-0.056 4.419,-0.11c-58.96,-8.817 -104.274,-58.95 -104.274,-119.287z"/>
  <g id="svg_3">
   <path id="svg_4" fill="url(#a)" d="m218.811,121.686999a77.824,77.824 0 0 0 -2.364,-13.775l-150.722,0a77.753,77.753 0 0 0 -2.366,13.775l155.452,0z"/>
   <path id="svg_5" fill="url(#b)" d="m218.811,134.480999l-155.45,0a77.611,77.611 0 0 0 2.364,13.776l150.724,0a77.821,77.821 0 0 0 2.362,-13.776z"/>
   <path id="svg_6" fill="url(#c)" d="m141.086,206.096999c31.3,0 58.282,-18.441 70.706,-45.048l-141.412,0c12.425,26.607 39.405,45.048 70.706,45.048z"/>
  </g>
  <g id="svg_7" fill="#FFF">
   <path id="svg_8" d="m51.84,134.482l203.29,0c0.108,-2.035 0.168,-4.084 0.168,-6.147c0,-2.232 -0.081,-4.444 -0.208,-6.647l-228.205,0c-0.126,2.2 -0.208,4.415 -0.208,6.647c0,2.063 0.06,4.112 0.168,6.147l24.995,0zm18.084,-39.362l-38.672,0c-1.271,4.166 -2.091,8.44 -2.879,12.795l224.692,0a113.52,113.52 0 0 0 -3.075,-12.795m-11.617,53.135l-210.002,0c0.766,4.352 1.638,8.623 2.888,12.794l219.479,0a113.252,113.252 0 0 0 3.023,-12.794l-15.388,0z"/>
  </g>
 </g>
</svg>