<?xml version="1.0" encoding="iso-8859-1"?>
<!-- Generator: Adobe Illustrator 16.0.0, SVG Export Plug-In . SVG Version: 6.00 Build 0)  -->
<!DOCTYPE svg PUBLIC "-//W3C//DTD SVG 1.1//EN" "http://www.w3.org/Graphics/SVG/1.1/DTD/svg11.dtd">
<svg version="1.1" id="Capa_1" xmlns="http://www.w3.org/2000/svg" xmlns:xlink="http://www.w3.org/1999/xlink" x="0px" y="0px"
	 width="912.899px" height="912.899px" viewBox="0 0 912.899 912.899" style="enable-background:new 0 0 912.899 912.899;"
	 xml:space="preserve">
<g>
	<g>
		<circle cx="456" cy="202.4" r="202.4"/>
		<path d="M81.2,477.5v42c0.3,0,0.7,0,1,0c28.8,0,56,11.2,76.4,31.6c20.4,20.4,31.6,47.5,31.6,76.4c0,28.8-11.2,56-31.6,76.399
			c-20.4,20.4-47.5,31.601-76.4,31.601c-0.3,0-0.7,0-1,0v144.8c0,14.1,11.5,25,24.9,25c1.7,0,3.4-0.2,5.1-0.5
			c37.9-7.7,94.3-12.7,157.4-12.7c83,0,154.6,8.5,187.4,20.8c32.7-12.3,104.299-20.8,187.399-20.8c63.102,0,119.5,4.9,157.4,12.7
			c1.701,0.3,3.4,0.5,5.1,0.5c13.5,0,24.9-10.9,24.9-25V735.5c-28.799,0-56-11.2-76.4-31.601c-20.398-20.399-31.6-47.5-31.6-76.399
			c0-28.8,11.201-56,31.6-76.4c20.4-20.399,47.5-31.6,76.4-31.6v-42c0-10.9-7.1-20.601-17.5-23.8
			C783.5,444.3,718.6,427.1,643.399,427.1C539.899,427.1,456,459.7,456,459.7S372.1,427.1,268.6,427.1
			c-75.2,0-140.1,17.2-169.9,26.601C88.3,457,81.2,466.6,81.2,477.5z"/>
		<path d="M66.2,557.3c-5.2,1.2-10.3,2.9-15,5.2c-24.3,11.6-41,36.3-41,65s16.8,53.399,41,65c4.7,2.3,9.8,4,15,5.2
			c4.8,1.1,9.9,1.699,15,1.8c0.3,0,0.7,0,1,0c39.8,0,72-32.2,72-72s-32.2-72-72-72c-0.3,0-0.7,0-1,0
			C76.1,555.6,71.1,556.2,66.2,557.3z"/>
		<path d="M758.7,627.5c0,39.8,32.199,72,72,72c5.1,0,10.199-0.5,15-1.601c5.199-1.1,10.301-2.8,15-5
			c24.801-11.399,42-36.399,42-65.5c0-29.1-17.199-54.1-42-65.5c-4.699-2.199-9.801-3.899-15-5c-4.801-1-9.9-1.6-15-1.6
			C790.899,555.5,758.7,587.8,758.7,627.5z"/>
	</g>
</g>
<g>
</g>
<g>
</g>
<g>
</g>
<g>
</g>
<g>
</g>
<g>
</g>
<g>
</g>
<g>
</g>
<g>
</g>
<g>
</g>
<g>
</g>
<g>
</g>
<g>
</g>
<g>
</g>
<g>
</g>
</svg>
