<svg width="263" height="263" xmlns="http://www.w3.org/2000/svg" preserveAspectRatio="xMinYMin meet">

 <g>
  <title>background</title>
  <rect fill="none" id="canvas_background" height="265" width="265" y="-1" x="-1"/>
 </g>
 <g>
  <title>Layer 1</title>
  <path id="svg_1" fill="#222C37" d="m169.872,131.237l45.91,-79.275l22.184,79.275l-22.185,79.256l-45.909,-79.256zm-22.376,12.874l45.916,79.262l-79.966,-20.486l-57.77,-58.776l91.82,0zm45.906,-105.033l-45.906,79.275l-91.82,0l57.77,-58.78l79.956,-20.495zm65.539,65.18l-28.008,-104.198l-104.54,27.925l-15.475,27.207l-31.401,-0.225l-76.517,76.277l76.517,76.259l0.003,0l31.388,-0.232l15.497,27.207l104.528,27.92l28.007,-104.178l-15.906,-26.982l15.906,-26.978l0.001,-0.002z"/>
 </g>
</svg>